# xmcd
#
# Track frame offsets:
#	150
#	20076
#	43776
#	65379
#	89197
#	102985
#	116102
#	134552
#	150612
#	164923
#	193435
#
# Disc length: 3735 seconds
#
# Revision: 0
# Processed by: cddbd v1.5.2PL0 Copyright (c) Steve Scherf et al.
# Submitted via: dBpowerAMP V4.0
#
DISCID=ae0e950b
DTITLE=Arangara - Grazia in punta di piedi
DYEAR=2013
DGENRE=Ethnic
TTITLE0=Specialmente di sera
TTITLE1=Grazia in punta di piedi
TTITLE2=Il viaggio
TTITLE3=C'era la luna a Portopalo
TTITLE4=Ombre rosse
TTITLE5=I nostri padri
TTITLE6=Lucio
TTITLE7=Come non
TTITLE8=Apparimai
TTITLE9=In fondo è una canzone
TTITLE10=DATA
EXTD=
EXTT0=
EXTT1=
EXTT2=
EXTT3=
EXTT4=
EXTT5=
EXTT6=
EXTT7=
EXTT8=
EXTT9=
EXTT10=
PLAYORDER=
